<?xml version="1.0" encoding="utf-8"?>
<!-- Generator: Adobe Illustrator 23.1.1, SVG Export Plug-In . SVG Version: 6.00 Build 0)  -->
<svg version="1.1" id="Layer_1" xmlns="http://www.w3.org/2000/svg" xmlns:xlink="http://www.w3.org/1999/xlink" x="0px" y="0px"
	 viewBox="0 0 130 266.8" style="enable-background:new 0 0 581.3 266.8;" xml:space="preserve">
<style type="text/css">
	.st0{fill:#1378E2;}
	.st1{fill:#22C4FA;}
	.st2{fill:#26DCFD;}
	.st3{fill:url(#SVGID_1_);}
	.st4{fill:url(#SVGID_2_);}
	.st5{fill:url(#SVGID_3_);}
	.st6{fill:#003866;}
	.st7{fill:none;}
	.st8{fill:url(#SVGID_4_);}
	.st9{fill:url(#SVGID_5_);}
	.st10{fill:url(#SVGID_6_);}
	.st11{fill:#FFFFFF;}
	.st12{fill:url(#SVGID_7_);}
	.st13{fill:url(#SVGID_8_);}
	.st14{fill:url(#SVGID_9_);}
	.st15{fill:url(#SVGID_10_);}
	.st16{fill:url(#SVGID_11_);}
	.st17{fill:url(#SVGID_12_);}
	.st18{fill:url(#SVGID_13_);}
	.st19{fill:url(#SVGID_14_);}
	.st20{fill:url(#SVGID_15_);}
	.st21{fill:#FFFFFF;stroke:#231F20;stroke-width:0.25;stroke-miterlimit:10;}
</style>
<g>	
	<g>
		<g>
			<path class="st11" d="M24.6,60c0.3,0.1,1.4,0.7,4.1,2.1l4,2.2l81.9,76c5.8,5.4,5.3,13.7-0.7,19.3l-2.8,2.6
				c-3.1,2.9-7.7,3.6-10.7,0.8l-98.1-91c-1.5-1.3-0.2-0.1-0.2-2"/>
			<path class="st11" d="M26.3,231.2L26.3,231.2c0,4,4.8,6.1,7.7,3.3l0.9-0.8l79.8-75c2-2.1,3.9-5.8,4-8.4c0.1-4.4-1.1-7.2-4.4-10.4
				l-15.5-14.4c0,0,3,4,0.9,9.5c-0.9,2.3-6,7.2-6,7.2l-64.4,60.5c-1.9,1.8-2.9,4.2-2.9,6.8V231.2z"/>
			<path class="st11" d="M13.1,193.1L13.1,193.1C5.9,193.1,0,187.2,0,180L0,74.8c0.5-10.9,10.6-16.4,18-16.7c0,0,3.4-0.2,7,1
				c4.5,1.5,7.8,5.3,7.8,5.3s-2.7-1.9-5.5,1.1c-1.4,1.4-1,4.6-1,4.6v109.7C26.3,187.2,20.4,193.1,13.1,193.1z"/>
		</g>
	</g>
</g>
</svg>
