<?xml version="1.0" encoding="utf-8"?>
<!-- Generator: Adobe Illustrator 23.1.1, SVG Export Plug-In . SVG Version: 6.00 Build 0)  -->
<svg version="1.1" id="Layer_1" xmlns="http://www.w3.org/2000/svg" xmlns:xlink="http://www.w3.org/1999/xlink" x="0px" y="0px"
	 viewBox="0 0 581.3 266.8" style="enable-background:new 0 0 581.3 266.8;" xml:space="preserve">
<style type="text/css">
	.st0{fill:#1378E2;}
	.st1{fill:#22C4FA;}
	.st2{fill:#26DCFD;}
	.st3{fill:url(#SVGID_1_);}
	.st4{fill:url(#SVGID_2_);}
	.st5{fill:url(#SVGID_3_);}
	.st6{fill:#003866;}
	.st7{fill:none;}
	.st8{fill:url(#SVGID_4_);}
	.st9{fill:url(#SVGID_5_);}
	.st10{fill:url(#SVGID_6_);}
	.st11{fill:#FFFFFF;}
	.st12{fill:url(#SVGID_7_);}
	.st13{fill:url(#SVGID_8_);}
	.st14{fill:url(#SVGID_9_);}
	.st15{fill:url(#SVGID_10_);}
	.st16{fill:url(#SVGID_11_);}
	.st17{fill:url(#SVGID_12_);}
	.st18{fill:url(#SVGID_13_);}
	.st19{fill:url(#SVGID_14_);}
	.st20{fill:url(#SVGID_15_);}
	.st21{fill:#FFFFFF;stroke:#231F20;stroke-width:0.25;stroke-miterlimit:10;}
</style>
<g>
	<g>
		<circle class="st11" cx="542.2" cy="74.6" r="3.1"/>
		<g>
			<circle class="st11" cx="542.2" cy="55.7" r="4.1"/>
			<circle class="st11" cx="559.1" cy="65.1" r="4.1"/>
			<circle class="st11" cx="559.2" cy="84.7" r="4.1"/>
			<circle class="st11" cx="542.3" cy="94.4" r="4.1"/>
			<circle class="st11" cx="525.6" cy="84.7" r="4.1"/>
			<circle class="st11" cx="525.6" cy="65" r="4.1"/>
		</g>
		<g>
			<circle class="st11" cx="542.4" cy="36.1" r="5.1"/>
			<circle class="st11" cx="576.2" cy="55.4" r="5.1"/>
			<circle class="st11" cx="576" cy="94.4" r="5.1"/>
			<circle class="st11" cx="542.4" cy="113.8" r="5.1"/>
			<circle class="st11" cx="508.8" cy="94.4" r="5.1"/>
			<circle class="st11" cx="508.8" cy="55.6" r="5.1"/>
		</g>
	</g>
	<g>
		<g>
			<path class="st11" d="M24.6,60c0.3,0.1,1.4,0.7,4.1,2.1l4,2.2l81.9,76c5.8,5.4,5.3,13.7-0.7,19.3l-2.8,2.6
				c-3.1,2.9-7.7,3.6-10.7,0.8l-98.1-91c-1.5-1.3-0.2-0.1-0.2-2"/>
			<path class="st11" d="M26.3,231.2L26.3,231.2c0,4,4.8,6.1,7.7,3.3l0.9-0.8l79.8-75c2-2.1,3.9-5.8,4-8.4c0.1-4.4-1.1-7.2-4.4-10.4
				l-15.5-14.4c0,0,3,4,0.9,9.5c-0.9,2.3-6,7.2-6,7.2l-64.4,60.5c-1.9,1.8-2.9,4.2-2.9,6.8V231.2z"/>
			<path class="st11" d="M13.1,193.1L13.1,193.1C5.9,193.1,0,187.2,0,180L0,74.8c0.5-10.9,10.6-16.4,18-16.7c0,0,3.4-0.2,7,1
				c4.5,1.5,7.8,5.3,7.8,5.3s-2.7-1.9-5.5,1.1c-1.4,1.4-1,4.6-1,4.6v109.7C26.3,187.2,20.4,193.1,13.1,193.1z"/>
		</g>
	</g>
	<g>
		<path class="st11" d="M162.1,187c-4.5,0-9-0.8-13.4-2.5c-4.4-1.7-8.4-4.2-11.9-7.4c-3.5-3.2-6.3-7.2-8.5-11.8
			c-2.1-4.7-3.2-10-3.2-15.9c0-6,1-11.4,3.1-16c2.1-4.7,4.9-8.6,8.3-11.8c3.5-3.2,7.4-5.7,11.9-7.4c4.5-1.7,9.1-2.5,13.8-2.5
			c5,0,9.5,0.9,13.7,2.7c4.2,1.8,7.7,4.2,10.4,7.3v-9.9h17.3v75.1h-17.3v-10.7c-2.7,3.4-6.3,6-10.5,7.9C171.7,186,167,187,162.1,187
			z M164.9,171c3.3,0,6.3-0.6,9-1.7c2.7-1.1,5.1-2.7,7.1-4.7c2-2,3.5-4.3,4.7-7c1.2-2.7,1.7-5.5,1.7-8.6c0-3-0.6-5.8-1.7-8.4
			c-1.2-2.7-2.7-5-4.7-6.9c-2-2-4.3-3.5-7.1-4.6c-2.7-1.1-5.7-1.7-9-1.7c-3.2,0-6.1,0.6-8.9,1.7c-2.8,1.1-5.2,2.7-7.3,4.6
			c-2.1,1.9-3.7,4.2-4.8,6.9c-1.2,2.7-1.7,5.5-1.7,8.6s0.6,5.9,1.7,8.6c1.2,2.7,2.8,5,4.8,7c2.1,2,4.5,3.5,7.3,4.6
			C158.8,170.5,161.7,171,164.9,171z"/>
		<path class="st11" d="M240.6,184.5l-30.9-72l19-0.1l21.3,50.2l21.4-50.2l19.1,0l-47.2,109.7h-18.9L240.6,184.5z"/>
		<path class="st11" d="M323.1,187c-5.4,0-10.5-1-15.2-2.9c-4.8-1.9-8.9-4.6-12.4-8c-3.5-3.4-6.3-7.4-8.3-12c-2-4.6-3-9.5-3-14.7
			c0-5.3,1-10.2,3-14.8c2-4.6,4.8-8.6,8.3-12c3.5-3.4,7.6-6.1,12.4-8c4.8-1.9,9.8-2.9,15.2-2.9c5.4,0,10.4,1,15.2,2.9
			s8.8,4.6,12.4,8c3.6,3.4,6.3,7.4,8.3,12c2,4.6,3,9.5,3,14.8c0,5.2-1,10.1-3,14.7c-2,4.6-4.8,8.6-8.3,12c-3.6,3.4-7.7,6.1-12.4,8
			S328.5,187,323.1,187z M323.1,170.6c3.1,0,6-0.6,8.6-1.7c2.7-1.1,5-2.6,6.9-4.6c2-1.9,3.5-4.2,4.6-6.8c1.1-2.6,1.7-5.4,1.7-8.3
			c0-3-0.6-5.8-1.7-8.4c-1.1-2.6-2.7-4.9-4.6-6.8c-2-1.9-4.3-3.5-6.9-4.6c-2.7-1.1-5.5-1.7-8.6-1.7c-3.1,0-6,0.6-8.7,1.7
			c-2.7,1.1-5,2.7-6.9,4.6c-1.9,1.9-3.4,4.2-4.6,6.8c-1.1,2.6-1.7,5.4-1.7,8.4c0,2.9,0.6,5.6,1.7,8.3c1.1,2.6,2.6,4.9,4.6,6.8
			c1.9,1.9,4.2,3.5,6.9,4.6C317.2,170.1,320,170.6,323.1,170.6z"/>
		<path class="st11" d="M369.6,111.7h17.2V122c2.5-3.1,5.6-5.6,9.4-7.5c3.8-1.9,8.2-2.8,13-2.8c9.3,0,16.6,2.8,21.9,8.3
			c5.3,5.5,7.9,13.3,7.9,23.2v43.7h-17.6V145c0-5.7-1.4-10.2-4.2-13.5c-2.8-3.3-7.1-5-12.7-5c-5,0-9.1,1.7-12.5,5.1
			c-3.4,3.4-5.1,8.4-5.1,14.8v40.3h-17.3V111.7z"/>
		<path class="st7" d="M499.3,130.1c-3.7-2.1-8.2-3.2-13.6-3.2c-5.2,0-9.7,1.2-13.5,3.5c-3.8,2.3-6.5,5.4-8,9.1h42.6
			C505.5,135.3,503,132.2,499.3,130.1z"/>
		<path class="st11" d="M524.4,147.8c0-5.2-1-10-2.9-14.4c-1.9-4.4-4.6-8.2-8-11.5c-3.4-3.3-7.5-5.8-12.3-7.6
			c-4.8-1.8-9.9-2.7-15.5-2.7c-5.5,0-10.6,1-15.3,3c-4.8,2-8.9,4.7-12.4,8c-3.5,3.4-6.3,7.4-8.3,12c-2,4.6-3,9.6-3,14.9
			c0,5.2,1,10.1,2.9,14.7c1.9,4.6,4.6,8.6,8.1,11.9c3.5,3.4,7.6,6,12.5,8c4.9,1.9,10.3,2.9,16.2,2.9c8.4,0,15.5-1.9,21.4-5.6
			c4.6-2.9,8.4-6.7,11.4-11.1l-14.1-8.2c-1.6,2.3-3.6,4.3-6,5.9c-3.6,2.4-7.8,3.6-12.7,3.6c-6.2,0-11.3-1.6-15.3-4.9
			c-4-3.3-6.6-7.5-7.8-12.8h61.1V147.8z M464.1,139.4c1.5-3.8,4.2-6.8,8-9.1c3.8-2.3,8.3-3.5,13.5-3.5c5.4,0,9.9,1.1,13.6,3.2
			c3.7,2.1,6.2,5.3,7.5,9.4H464.1z"/>
	</g>
</g>
</svg>
